<mxfile host="Electron" agent="Mozilla/5.0 (Windows NT 10.0; Win64; x64) AppleWebKit/537.36 (KHTML, like Gecko) draw.io/27.0.9 Chrome/134.0.6998.205 Electron/35.4.0 Safari/537.36" version="27.0.9">
  <diagram name="Page-1" id="S9w-gTFfcgbTOL_b_bOv">
    <mxGraphModel dx="1310" dy="860" grid="1" gridSize="10" guides="1" tooltips="1" connect="1" arrows="1" fold="1" page="1" pageScale="1" pageWidth="850" pageHeight="1100" math="0" shadow="0">
      <root>
        <mxCell id="0" />
        <mxCell id="1" parent="0" />
        <mxCell id="k9VUNzc_FfO6bgr2ZHkn-11" value="" style="group;fontFamily=Times New Roman;fontSize=12;labelBackgroundColor=none;labelBorderColor=none;whiteSpace=wrap;" vertex="1" connectable="0" parent="1">
          <mxGeometry x="175" y="110" width="500" height="200" as="geometry" />
        </mxCell>
        <mxCell id="k9VUNzc_FfO6bgr2ZHkn-7" style="edgeStyle=orthogonalEdgeStyle;rounded=0;orthogonalLoop=1;jettySize=auto;html=1;entryX=0.5;entryY=0;entryDx=0;entryDy=0;fillColor=#d5e8d4;strokeColor=#82b366;strokeWidth=2;shadow=1;fontFamily=Times New Roman;fontSize=12;labelBackgroundColor=none;labelBorderColor=none;" edge="1" parent="k9VUNzc_FfO6bgr2ZHkn-11" source="k9VUNzc_FfO6bgr2ZHkn-3" target="k9VUNzc_FfO6bgr2ZHkn-5">
          <mxGeometry relative="1" as="geometry" />
        </mxCell>
        <mxCell id="k9VUNzc_FfO6bgr2ZHkn-9" style="edgeStyle=orthogonalEdgeStyle;rounded=0;orthogonalLoop=1;jettySize=auto;html=1;exitX=0.75;exitY=1;exitDx=0;exitDy=0;fillColor=#d5e8d4;strokeColor=#82b366;strokeWidth=2;shadow=1;fontFamily=Times New Roman;fontSize=12;labelBackgroundColor=none;labelBorderColor=none;" edge="1" parent="k9VUNzc_FfO6bgr2ZHkn-11" source="k9VUNzc_FfO6bgr2ZHkn-3" target="k9VUNzc_FfO6bgr2ZHkn-6">
          <mxGeometry relative="1" as="geometry" />
        </mxCell>
        <mxCell id="k9VUNzc_FfO6bgr2ZHkn-3" value="&lt;b&gt;Main&lt;/b&gt;&lt;div&gt;(Declares global variables and calls all other modules.)&lt;/div&gt;" style="rounded=0;whiteSpace=wrap;html=1;fillColor=#d5e8d4;strokeColor=#82b366;strokeWidth=2;shadow=1;fontFamily=Times New Roman;fontSize=12;labelBackgroundColor=none;labelBorderColor=none;" vertex="1" parent="k9VUNzc_FfO6bgr2ZHkn-11">
          <mxGeometry x="195" width="120" height="60" as="geometry" />
        </mxCell>
        <mxCell id="k9VUNzc_FfO6bgr2ZHkn-4" value="&lt;b&gt;Housekeeping&lt;/b&gt;&lt;div&gt;(Prompts user for customer name.)&lt;/div&gt;" style="rounded=0;whiteSpace=wrap;html=1;fillColor=#d5e8d4;strokeColor=#82b366;strokeWidth=2;shadow=1;fontFamily=Times New Roman;fontSize=12;labelBackgroundColor=none;labelBorderColor=none;" vertex="1" parent="k9VUNzc_FfO6bgr2ZHkn-11">
          <mxGeometry y="140" width="120" height="60" as="geometry" />
        </mxCell>
        <mxCell id="k9VUNzc_FfO6bgr2ZHkn-5" value="&lt;b&gt;DetailLoop&lt;/b&gt;&lt;div&gt;(Gets room counts, calculates charge, displays info.)&lt;/div&gt;" style="rounded=0;whiteSpace=wrap;html=1;fillColor=#d5e8d4;strokeColor=#82b366;strokeWidth=2;shadow=1;fontFamily=Times New Roman;fontSize=12;labelBackgroundColor=none;labelBorderColor=none;" vertex="1" parent="k9VUNzc_FfO6bgr2ZHkn-11">
          <mxGeometry x="195" y="140" width="120" height="60" as="geometry" />
        </mxCell>
        <mxCell id="k9VUNzc_FfO6bgr2ZHkn-6" value="&lt;b&gt;EndOfJob&lt;/b&gt;&lt;div&gt;(Displays &quot;Program complete&quot; message)&lt;/div&gt;" style="rounded=0;whiteSpace=wrap;html=1;fillColor=#d5e8d4;strokeColor=#82b366;strokeWidth=2;shadow=1;fontFamily=Times New Roman;fontSize=12;labelBackgroundColor=none;labelBorderColor=none;" vertex="1" parent="k9VUNzc_FfO6bgr2ZHkn-11">
          <mxGeometry x="380" y="140" width="120" height="60" as="geometry" />
        </mxCell>
        <mxCell id="k9VUNzc_FfO6bgr2ZHkn-8" style="edgeStyle=orthogonalEdgeStyle;rounded=0;orthogonalLoop=1;jettySize=auto;html=1;exitX=0.25;exitY=1;exitDx=0;exitDy=0;entryX=0.581;entryY=-0.012;entryDx=0;entryDy=0;entryPerimeter=0;fillColor=#d5e8d4;strokeColor=#82b366;strokeWidth=2;shadow=1;fontFamily=Times New Roman;fontSize=12;labelBackgroundColor=none;labelBorderColor=none;" edge="1" parent="k9VUNzc_FfO6bgr2ZHkn-11" source="k9VUNzc_FfO6bgr2ZHkn-3" target="k9VUNzc_FfO6bgr2ZHkn-4">
          <mxGeometry relative="1" as="geometry" />
        </mxCell>
        <mxCell id="k9VUNzc_FfO6bgr2ZHkn-12" value="&lt;h1 style=&quot;margin-top: 0px;&quot;&gt;&lt;font face=&quot;Times New Roman&quot; style=&quot;font-size: 20px;&quot;&gt;&lt;u&gt;&lt;span style=&quot;background-color: transparent; color: light-dark(rgb(0, 0, 0), rgb(255, 255, 255));&quot;&gt;Hierarchy Chart for Hazelâ€™s Housecleaning Program&lt;/span&gt;&lt;span style=&quot;background-color: transparent; color: light-dark(rgb(0, 0, 0), rgb(255, 255, 255));&quot;&gt;&amp;nbsp;&lt;/span&gt;&lt;/u&gt;&lt;/font&gt;&lt;/h1&gt;" style="text;html=1;whiteSpace=wrap;overflow=hidden;rounded=0;align=center;" vertex="1" parent="1">
          <mxGeometry x="277.5" width="320" height="120" as="geometry" />
        </mxCell>
        <mxCell id="k9VUNzc_FfO6bgr2ZHkn-13" value="&lt;h2&gt;&lt;font style=&quot;font-size: 20px;&quot; face=&quot;Times New Roman&quot;&gt;&lt;u&gt;Flowchart for Exercise 1&lt;/u&gt;&lt;/font&gt;&lt;/h2&gt;" style="text;html=1;align=center;verticalAlign=middle;whiteSpace=wrap;rounded=0;" vertex="1" parent="1">
          <mxGeometry x="360" y="400" width="155" height="40" as="geometry" />
        </mxCell>
        <mxCell id="k9VUNzc_FfO6bgr2ZHkn-68" value="" style="group;fillColor=#d5e8d4;strokeColor=#82b366;strokeWidth=2;fontStyle=1;fontSize=13;" vertex="1" connectable="0" parent="1">
          <mxGeometry x="45" y="480" width="760" height="1140" as="geometry" />
        </mxCell>
        <mxCell id="k9VUNzc_FfO6bgr2ZHkn-15" value="&lt;font face=&quot;Times New Roman&quot;&gt;Start&lt;/font&gt;" style="ellipse;whiteSpace=wrap;html=1;" vertex="1" parent="k9VUNzc_FfO6bgr2ZHkn-68">
          <mxGeometry width="120" height="80" as="geometry" />
        </mxCell>
        <mxCell id="k9VUNzc_FfO6bgr2ZHkn-67" value="" style="group;strokeWidth=2;" vertex="1" connectable="0" parent="k9VUNzc_FfO6bgr2ZHkn-68">
          <mxGeometry x="180" y="10" width="580" height="1130" as="geometry" />
        </mxCell>
        <mxCell id="k9VUNzc_FfO6bgr2ZHkn-45" style="edgeStyle=orthogonalEdgeStyle;rounded=0;orthogonalLoop=1;jettySize=auto;html=1;exitX=1;exitY=0.5;exitDx=0;exitDy=0;strokeWidth=2;" edge="1" parent="k9VUNzc_FfO6bgr2ZHkn-67" source="k9VUNzc_FfO6bgr2ZHkn-16" target="k9VUNzc_FfO6bgr2ZHkn-17">
          <mxGeometry relative="1" as="geometry" />
        </mxCell>
        <mxCell id="k9VUNzc_FfO6bgr2ZHkn-16" value="&lt;font face=&quot;Times New Roman&quot;&gt;Call Housekeeping&lt;/font&gt;" style="rounded=0;whiteSpace=wrap;html=1;strokeWidth=2;" vertex="1" parent="k9VUNzc_FfO6bgr2ZHkn-67">
          <mxGeometry x="30" width="120" height="60" as="geometry" />
        </mxCell>
        <mxCell id="k9VUNzc_FfO6bgr2ZHkn-46" style="edgeStyle=orthogonalEdgeStyle;rounded=0;orthogonalLoop=1;jettySize=auto;html=1;exitX=1;exitY=0.5;exitDx=0;exitDy=0;strokeWidth=2;" edge="1" parent="k9VUNzc_FfO6bgr2ZHkn-67" source="k9VUNzc_FfO6bgr2ZHkn-17" target="k9VUNzc_FfO6bgr2ZHkn-18">
          <mxGeometry relative="1" as="geometry" />
        </mxCell>
        <mxCell id="k9VUNzc_FfO6bgr2ZHkn-17" value="&lt;font face=&quot;Times New Roman&quot;&gt;Enter customer&#39;s&lt;/font&gt;&lt;div&gt;&lt;font face=&quot;Times New Roman&quot;&gt;&amp;nbsp;last name&amp;nbsp;&lt;/font&gt;&lt;/div&gt;&lt;div&gt;&lt;font face=&quot;Times New Roman&quot;&gt;(ZZZZ to quit)&lt;/font&gt;&lt;/div&gt;" style="shape=parallelogram;perimeter=parallelogramPerimeter;whiteSpace=wrap;html=1;fixedSize=1;strokeWidth=2;" vertex="1" parent="k9VUNzc_FfO6bgr2ZHkn-67">
          <mxGeometry x="230" width="120" height="60" as="geometry" />
        </mxCell>
        <mxCell id="k9VUNzc_FfO6bgr2ZHkn-47" style="edgeStyle=orthogonalEdgeStyle;rounded=0;orthogonalLoop=1;jettySize=auto;html=1;exitX=0.5;exitY=1;exitDx=0;exitDy=0;strokeWidth=2;" edge="1" parent="k9VUNzc_FfO6bgr2ZHkn-67" source="k9VUNzc_FfO6bgr2ZHkn-18" target="k9VUNzc_FfO6bgr2ZHkn-19">
          <mxGeometry relative="1" as="geometry" />
        </mxCell>
        <mxCell id="k9VUNzc_FfO6bgr2ZHkn-18" value="Input custom&lt;span style=&quot;background-color: transparent; color: light-dark(rgb(0, 0, 0), rgb(255, 255, 255));&quot;&gt;e&lt;/span&gt;&lt;span style=&quot;background-color: transparent; color: light-dark(rgb(0, 0, 0), rgb(255, 255, 255));&quot;&gt;r&lt;/span&gt;&lt;div&gt;&lt;span style=&quot;background-color: transparent; color: light-dark(rgb(0, 0, 0), rgb(255, 255, 255));&quot;&gt;Name&lt;/span&gt;&lt;/div&gt;" style="shape=parallelogram;perimeter=parallelogramPerimeter;whiteSpace=wrap;html=1;fixedSize=1;strokeWidth=2;" vertex="1" parent="k9VUNzc_FfO6bgr2ZHkn-67">
          <mxGeometry x="430" width="120" height="60" as="geometry" />
        </mxCell>
        <mxCell id="k9VUNzc_FfO6bgr2ZHkn-48" style="edgeStyle=orthogonalEdgeStyle;rounded=0;orthogonalLoop=1;jettySize=auto;html=1;exitX=0;exitY=0.5;exitDx=0;exitDy=0;entryX=0.5;entryY=0;entryDx=0;entryDy=0;strokeWidth=2;" edge="1" parent="k9VUNzc_FfO6bgr2ZHkn-67" source="k9VUNzc_FfO6bgr2ZHkn-19" target="k9VUNzc_FfO6bgr2ZHkn-20">
          <mxGeometry relative="1" as="geometry" />
        </mxCell>
        <mxCell id="k9VUNzc_FfO6bgr2ZHkn-49" style="edgeStyle=orthogonalEdgeStyle;rounded=0;orthogonalLoop=1;jettySize=auto;html=1;exitX=1;exitY=0.5;exitDx=0;exitDy=0;entryX=0.5;entryY=0;entryDx=0;entryDy=0;strokeWidth=2;" edge="1" parent="k9VUNzc_FfO6bgr2ZHkn-67" source="k9VUNzc_FfO6bgr2ZHkn-19" target="k9VUNzc_FfO6bgr2ZHkn-24">
          <mxGeometry relative="1" as="geometry" />
        </mxCell>
        <mxCell id="k9VUNzc_FfO6bgr2ZHkn-19" value="&lt;font face=&quot;Times New Roman&quot;&gt;Is&amp;nbsp;&lt;/font&gt;&lt;div&gt;&lt;font face=&quot;Times New Roman&quot;&gt;customer&lt;/font&gt;&lt;div&gt;&lt;font face=&quot;Times New Roman&quot;&gt;Name&amp;nbsp;&lt;/font&gt;&lt;/div&gt;&lt;div&gt;&lt;font face=&quot;Times New Roman&quot;&gt;= &quot;ZZZZ&quot;?&lt;/font&gt;&lt;/div&gt;&lt;/div&gt;" style="rhombus;whiteSpace=wrap;html=1;strokeWidth=2;" vertex="1" parent="k9VUNzc_FfO6bgr2ZHkn-67">
          <mxGeometry x="220" y="120" width="110" height="100" as="geometry" />
        </mxCell>
        <mxCell id="k9VUNzc_FfO6bgr2ZHkn-64" style="edgeStyle=orthogonalEdgeStyle;rounded=0;orthogonalLoop=1;jettySize=auto;html=1;exitX=0.5;exitY=1;exitDx=0;exitDy=0;entryX=0.5;entryY=0;entryDx=0;entryDy=0;strokeWidth=2;" edge="1" parent="k9VUNzc_FfO6bgr2ZHkn-67" source="k9VUNzc_FfO6bgr2ZHkn-20" target="k9VUNzc_FfO6bgr2ZHkn-28">
          <mxGeometry relative="1" as="geometry" />
        </mxCell>
        <mxCell id="k9VUNzc_FfO6bgr2ZHkn-20" value="&lt;font face=&quot;Times New Roman&quot;&gt;&lt;strong data-end=&quot;1322&quot; data-start=&quot;1315&quot;&gt;YES&lt;/strong&gt;&amp;nbsp;&lt;/font&gt;" style="rhombus;whiteSpace=wrap;html=1;strokeWidth=2;" vertex="1" parent="k9VUNzc_FfO6bgr2ZHkn-67">
          <mxGeometry x="30" y="240" width="80" height="80" as="geometry" />
        </mxCell>
        <mxCell id="k9VUNzc_FfO6bgr2ZHkn-51" style="edgeStyle=orthogonalEdgeStyle;rounded=0;orthogonalLoop=1;jettySize=auto;html=1;exitX=0.5;exitY=1;exitDx=0;exitDy=0;entryX=0.5;entryY=0;entryDx=0;entryDy=0;strokeWidth=2;" edge="1" parent="k9VUNzc_FfO6bgr2ZHkn-67" source="k9VUNzc_FfO6bgr2ZHkn-24" target="k9VUNzc_FfO6bgr2ZHkn-29">
          <mxGeometry relative="1" as="geometry" />
        </mxCell>
        <mxCell id="k9VUNzc_FfO6bgr2ZHkn-24" value="&lt;code data-end=&quot;1374&quot; data-start=&quot;1362&quot;&gt;&lt;font face=&quot;Times New Roman&quot;&gt;&amp;nbsp;No&lt;/font&gt;&lt;/code&gt;" style="rhombus;whiteSpace=wrap;html=1;strokeWidth=2;" vertex="1" parent="k9VUNzc_FfO6bgr2ZHkn-67">
          <mxGeometry x="400" y="230" width="80" height="80" as="geometry" />
        </mxCell>
        <mxCell id="k9VUNzc_FfO6bgr2ZHkn-65" style="edgeStyle=orthogonalEdgeStyle;rounded=0;orthogonalLoop=1;jettySize=auto;html=1;exitX=0.5;exitY=1;exitDx=0;exitDy=0;strokeWidth=2;" edge="1" parent="k9VUNzc_FfO6bgr2ZHkn-67" source="k9VUNzc_FfO6bgr2ZHkn-28">
          <mxGeometry relative="1" as="geometry">
            <mxPoint x="70" y="480" as="targetPoint" />
          </mxGeometry>
        </mxCell>
        <mxCell id="k9VUNzc_FfO6bgr2ZHkn-28" value="&lt;font face=&quot;Times New Roman&quot;&gt;Go to&amp;nbsp;&lt;span style=&quot;background-color: transparent; color: light-dark(rgb(0, 0, 0), rgb(255, 255, 255));&quot;&gt;end of job&lt;/span&gt;&lt;/font&gt;" style="rounded=0;whiteSpace=wrap;html=1;strokeWidth=2;" vertex="1" parent="k9VUNzc_FfO6bgr2ZHkn-67">
          <mxGeometry x="10" y="360" width="120" height="60" as="geometry" />
        </mxCell>
        <mxCell id="k9VUNzc_FfO6bgr2ZHkn-29" value="&lt;font face=&quot;Times New Roman&quot;&gt;Go to&amp;nbsp;DetailLoop&lt;/font&gt;" style="rounded=0;whiteSpace=wrap;html=1;strokeWidth=2;" vertex="1" parent="k9VUNzc_FfO6bgr2ZHkn-67">
          <mxGeometry x="380" y="360" width="120" height="60" as="geometry" />
        </mxCell>
        <mxCell id="k9VUNzc_FfO6bgr2ZHkn-56" style="edgeStyle=orthogonalEdgeStyle;rounded=0;orthogonalLoop=1;jettySize=auto;html=1;exitX=0.5;exitY=1;exitDx=0;exitDy=0;entryX=0.5;entryY=0;entryDx=0;entryDy=0;strokeWidth=2;" edge="1" parent="k9VUNzc_FfO6bgr2ZHkn-67" source="k9VUNzc_FfO6bgr2ZHkn-31" target="k9VUNzc_FfO6bgr2ZHkn-32">
          <mxGeometry relative="1" as="geometry" />
        </mxCell>
        <mxCell id="k9VUNzc_FfO6bgr2ZHkn-31" value="&lt;font face=&quot;Times New Roman&quot;&gt;&lt;br&gt;Inpu&lt;span style=&quot;background-color: transparent; color: light-dark(rgb(0, 0, 0), rgb(255, 255, 255));&quot;&gt;t&lt;/span&gt;&lt;/font&gt;&lt;div&gt;&lt;span style=&quot;background-color: transparent; color: light-dark(rgb(0, 0, 0), rgb(255, 255, 255));&quot;&gt;&lt;font face=&quot;Times New Roman&quot;&gt;&amp;nbsp;numBathrooms&lt;/font&gt;&lt;/span&gt;&lt;div&gt;&lt;br&gt;&lt;/div&gt;&lt;/div&gt;" style="shape=parallelogram;perimeter=parallelogramPerimeter;whiteSpace=wrap;html=1;fixedSize=1;strokeWidth=2;" vertex="1" parent="k9VUNzc_FfO6bgr2ZHkn-67">
          <mxGeometry x="390" y="470" width="120" height="50" as="geometry" />
        </mxCell>
        <mxCell id="k9VUNzc_FfO6bgr2ZHkn-57" style="edgeStyle=orthogonalEdgeStyle;rounded=0;orthogonalLoop=1;jettySize=auto;html=1;exitX=0.5;exitY=1;exitDx=0;exitDy=0;strokeWidth=2;" edge="1" parent="k9VUNzc_FfO6bgr2ZHkn-67" source="k9VUNzc_FfO6bgr2ZHkn-32">
          <mxGeometry relative="1" as="geometry">
            <mxPoint x="449.8571428571429" y="660" as="targetPoint" />
          </mxGeometry>
        </mxCell>
        <mxCell id="k9VUNzc_FfO6bgr2ZHkn-32" value="&lt;font face=&quot;Times New Roman&quot;&gt;Input&lt;/font&gt;&lt;div&gt;&lt;font face=&quot;Times New Roman&quot;&gt;&amp;nbsp;numOtherRooms&lt;/font&gt;&lt;/div&gt;" style="shape=parallelogram;perimeter=parallelogramPerimeter;whiteSpace=wrap;html=1;fixedSize=1;strokeWidth=2;" vertex="1" parent="k9VUNzc_FfO6bgr2ZHkn-67">
          <mxGeometry x="390" y="570" width="120" height="60" as="geometry" />
        </mxCell>
        <mxCell id="k9VUNzc_FfO6bgr2ZHkn-58" style="edgeStyle=orthogonalEdgeStyle;rounded=0;orthogonalLoop=1;jettySize=auto;html=1;exitX=0.5;exitY=1;exitDx=0;exitDy=0;entryX=0.5;entryY=0;entryDx=0;entryDy=0;strokeWidth=2;" edge="1" parent="k9VUNzc_FfO6bgr2ZHkn-67" source="k9VUNzc_FfO6bgr2ZHkn-33" target="k9VUNzc_FfO6bgr2ZHkn-34">
          <mxGeometry relative="1" as="geometry" />
        </mxCell>
        <mxCell id="k9VUNzc_FfO6bgr2ZHkn-33" value="&lt;div&gt;&lt;code data-end=&quot;1566&quot; data-start=&quot;1530&quot;&gt;&lt;font face=&quot;Times New Roman&quot;&gt;&lt;br&gt;&lt;/font&gt;&lt;/code&gt;&lt;/div&gt;&lt;font face=&quot;Times New Roman&quot;&gt;&lt;code data-end=&quot;1566&quot; data-start=&quot;1530&quot;&gt;bathroomCharge = numBathrooms * 15&lt;/code&gt;&lt;br data-end=&quot;1569&quot; data-start=&quot;1566&quot;&gt;&lt;br data-end=&quot;1605&quot; data-start=&quot;1602&quot;&gt;&lt;/font&gt;&lt;div&gt;&lt;br&gt;&lt;/div&gt;" style="rounded=0;whiteSpace=wrap;html=1;strokeWidth=2;" vertex="1" parent="k9VUNzc_FfO6bgr2ZHkn-67">
          <mxGeometry x="390" y="670" width="120" height="60" as="geometry" />
        </mxCell>
        <mxCell id="k9VUNzc_FfO6bgr2ZHkn-59" style="edgeStyle=orthogonalEdgeStyle;rounded=0;orthogonalLoop=1;jettySize=auto;html=1;exitX=0.5;exitY=1;exitDx=0;exitDy=0;entryX=0.5;entryY=0;entryDx=0;entryDy=0;strokeWidth=2;" edge="1" parent="k9VUNzc_FfO6bgr2ZHkn-67" source="k9VUNzc_FfO6bgr2ZHkn-34" target="k9VUNzc_FfO6bgr2ZHkn-35">
          <mxGeometry relative="1" as="geometry" />
        </mxCell>
        <mxCell id="k9VUNzc_FfO6bgr2ZHkn-34" value="&lt;font face=&quot;Times New Roman&quot;&gt;roomCharge&amp;nbsp;= numOtherRooms * 10&lt;/font&gt;" style="rounded=0;whiteSpace=wrap;html=1;strokeWidth=2;" vertex="1" parent="k9VUNzc_FfO6bgr2ZHkn-67">
          <mxGeometry x="390" y="760" width="120" height="60" as="geometry" />
        </mxCell>
        <mxCell id="k9VUNzc_FfO6bgr2ZHkn-35" value="&lt;font face=&quot;Times New Roman&quot;&gt;totalCharge = 40 + bathroomCharge + roomCharge&lt;/font&gt;" style="rounded=0;whiteSpace=wrap;html=1;strokeWidth=2;" vertex="1" parent="k9VUNzc_FfO6bgr2ZHkn-67">
          <mxGeometry x="390" y="850" width="120" height="60" as="geometry" />
        </mxCell>
        <mxCell id="k9VUNzc_FfO6bgr2ZHkn-37" style="edgeStyle=orthogonalEdgeStyle;rounded=0;orthogonalLoop=1;jettySize=auto;html=1;exitX=0.5;exitY=1;exitDx=0;exitDy=0;strokeWidth=2;" edge="1" parent="k9VUNzc_FfO6bgr2ZHkn-67" source="k9VUNzc_FfO6bgr2ZHkn-32" target="k9VUNzc_FfO6bgr2ZHkn-32">
          <mxGeometry relative="1" as="geometry" />
        </mxCell>
        <mxCell id="k9VUNzc_FfO6bgr2ZHkn-40" style="edgeStyle=orthogonalEdgeStyle;rounded=0;orthogonalLoop=1;jettySize=auto;html=1;exitX=1;exitY=0.5;exitDx=0;exitDy=0;strokeWidth=2;" edge="1" parent="k9VUNzc_FfO6bgr2ZHkn-67" source="k9VUNzc_FfO6bgr2ZHkn-38" target="k9VUNzc_FfO6bgr2ZHkn-19">
          <mxGeometry relative="1" as="geometry">
            <mxPoint x="620" y="120" as="targetPoint" />
          </mxGeometry>
        </mxCell>
        <mxCell id="k9VUNzc_FfO6bgr2ZHkn-41" style="edgeStyle=orthogonalEdgeStyle;rounded=0;orthogonalLoop=1;jettySize=auto;html=1;strokeWidth=2;" edge="1" parent="k9VUNzc_FfO6bgr2ZHkn-67" source="k9VUNzc_FfO6bgr2ZHkn-38" target="k9VUNzc_FfO6bgr2ZHkn-43">
          <mxGeometry relative="1" as="geometry">
            <mxPoint x="70" y="1000" as="targetPoint" />
          </mxGeometry>
        </mxCell>
        <mxCell id="k9VUNzc_FfO6bgr2ZHkn-38" value="&lt;ul data-end=&quot;1784&quot; data-start=&quot;1684&quot;&gt;&lt;li data-end=&quot;1707&quot; data-start=&quot;1684&quot;&gt;&lt;p style=&quot;text-align: left;&quot; data-end=&quot;1707&quot; data-start=&quot;1686&quot;&gt;&lt;span style=&quot;background-color: transparent; color: light-dark(rgb(0, 0, 0), rgb(255, 255, 255));&quot;&gt;&lt;font face=&quot;Times New Roman&quot; style=&quot;font-size: 14px;&quot;&gt;Display bathroom charge&lt;/font&gt;&lt;/span&gt;&lt;/p&gt;&lt;/li&gt;&lt;li data-end=&quot;1761&quot; data-start=&quot;1734&quot;&gt;&lt;p style=&quot;text-align: left;&quot; data-end=&quot;1761&quot; data-start=&quot;1736&quot;&gt;&lt;font face=&quot;Times New Roman&quot; style=&quot;font-size: 14px;&quot;&gt;Display other room charge&lt;/font&gt;&lt;/p&gt;&lt;/li&gt;&lt;li data-end=&quot;1761&quot; data-start=&quot;1734&quot;&gt;&lt;p style=&quot;text-align: left;&quot; data-end=&quot;1761&quot; data-start=&quot;1736&quot;&gt;&lt;span style=&quot;background-color: transparent; color: light-dark(rgb(0, 0, 0), rgb(255, 255, 255));&quot;&gt;&lt;font face=&quot;Times New Roman&quot; style=&quot;font-size: 14px;&quot;&gt;Display total charge&lt;/font&gt;&lt;/span&gt;&lt;/p&gt;&lt;/li&gt;&lt;/ul&gt;" style="shape=parallelogram;perimeter=parallelogramPerimeter;whiteSpace=wrap;html=1;fixedSize=1;strokeWidth=2;" vertex="1" parent="k9VUNzc_FfO6bgr2ZHkn-67">
          <mxGeometry x="360" y="1000" width="220" height="130" as="geometry" />
        </mxCell>
        <mxCell id="k9VUNzc_FfO6bgr2ZHkn-66" style="edgeStyle=orthogonalEdgeStyle;rounded=0;orthogonalLoop=1;jettySize=auto;html=1;exitX=0.5;exitY=1;exitDx=0;exitDy=0;strokeWidth=2;" edge="1" parent="k9VUNzc_FfO6bgr2ZHkn-67" source="k9VUNzc_FfO6bgr2ZHkn-39" target="k9VUNzc_FfO6bgr2ZHkn-43">
          <mxGeometry relative="1" as="geometry" />
        </mxCell>
        <mxCell id="k9VUNzc_FfO6bgr2ZHkn-39" value="&lt;font face=&quot;Times New Roman&quot;&gt;Program&amp;nbsp;&lt;/font&gt;&lt;div&gt;&lt;font face=&quot;Times New Roman&quot;&gt;Complete&lt;/font&gt;&lt;/div&gt;" style="shape=parallelogram;perimeter=parallelogramPerimeter;whiteSpace=wrap;html=1;fixedSize=1;strokeWidth=2;" vertex="1" parent="k9VUNzc_FfO6bgr2ZHkn-67">
          <mxGeometry y="480" width="120" height="60" as="geometry" />
        </mxCell>
        <mxCell id="k9VUNzc_FfO6bgr2ZHkn-43" value="END&amp;nbsp;" style="ellipse;whiteSpace=wrap;html=1;strokeWidth=2;" vertex="1" parent="k9VUNzc_FfO6bgr2ZHkn-67">
          <mxGeometry y="910" width="120" height="80" as="geometry" />
        </mxCell>
        <mxCell id="k9VUNzc_FfO6bgr2ZHkn-53" style="edgeStyle=orthogonalEdgeStyle;rounded=0;orthogonalLoop=1;jettySize=auto;html=1;exitX=0.5;exitY=1;exitDx=0;exitDy=0;strokeWidth=2;" edge="1" parent="k9VUNzc_FfO6bgr2ZHkn-67" source="k9VUNzc_FfO6bgr2ZHkn-39" target="k9VUNzc_FfO6bgr2ZHkn-39">
          <mxGeometry relative="1" as="geometry" />
        </mxCell>
        <mxCell id="k9VUNzc_FfO6bgr2ZHkn-55" style="edgeStyle=orthogonalEdgeStyle;rounded=0;orthogonalLoop=1;jettySize=auto;html=1;exitX=0.5;exitY=1;exitDx=0;exitDy=0;entryX=0.415;entryY=0;entryDx=0;entryDy=0;entryPerimeter=0;strokeWidth=2;" edge="1" parent="k9VUNzc_FfO6bgr2ZHkn-67" source="k9VUNzc_FfO6bgr2ZHkn-29" target="k9VUNzc_FfO6bgr2ZHkn-31">
          <mxGeometry relative="1" as="geometry" />
        </mxCell>
        <mxCell id="k9VUNzc_FfO6bgr2ZHkn-60" style="edgeStyle=orthogonalEdgeStyle;rounded=0;orthogonalLoop=1;jettySize=auto;html=1;exitX=0.5;exitY=1;exitDx=0;exitDy=0;entryX=0.408;entryY=-0.036;entryDx=0;entryDy=0;entryPerimeter=0;strokeWidth=2;" edge="1" parent="k9VUNzc_FfO6bgr2ZHkn-67" source="k9VUNzc_FfO6bgr2ZHkn-35" target="k9VUNzc_FfO6bgr2ZHkn-38">
          <mxGeometry relative="1" as="geometry" />
        </mxCell>
        <mxCell id="k9VUNzc_FfO6bgr2ZHkn-44" style="edgeStyle=orthogonalEdgeStyle;rounded=0;orthogonalLoop=1;jettySize=auto;html=1;strokeWidth=2;" edge="1" parent="k9VUNzc_FfO6bgr2ZHkn-68" source="k9VUNzc_FfO6bgr2ZHkn-15" target="k9VUNzc_FfO6bgr2ZHkn-16">
          <mxGeometry relative="1" as="geometry" />
        </mxCell>
      </root>
    </mxGraphModel>
  </diagram>
</mxfile>
